<?xml version="1.0" encoding="UTF-8" standalone="no"?>
<!DOCTYPE svg PUBLIC "-//W3C//DTD SVG 1.1//EN" "http://www.w3.org/Graphics/SVG/1.1/DTD/svg11.dtd">
<svg xmlns="http://www.w3.org/2000/svg" version="1.1" viewBox="0.00 0.00 493.00 507.00">
<path fill="#fafafa" d="
  M 286.63 305.07
  L 261.45 305.07
  A 1.05 1.04 -14.7 0 1 260.54 304.54
  Q 247.13 281.04 240.38 269.63
  C 238.10 265.78 234.12 266.28 229.45 266.29
  Q 166.76 266.37 156.25 266.36
  Q 155.35 266.36 154.82 266.21
  A 1.40 1.39 -67.5 0 1 153.98 264.17
  Q 181.42 216.70 206.29 173.56
  C 208.21 170.23 210.80 171.71 212.25 174.26
  Q 223.76 194.49 249.46 238.75
  Q 251.88 242.92 257.53 242.93
  C 270.15 242.94 283.33 241.26 292.38 232.01
  Q 300.65 223.56 303.28 210.81
  C 305.84 198.36 303.31 182.01 294.37 171.96
  C 285.69 162.22 271.78 160.15 259.50 159.98
  Q 235.67 159.66 182.01 159.92
  C 178.20 159.93 177.18 157.73 175.23 154.32
  Q 170.09 145.33 168.05 141.95
  Q 166.81 139.88 166.83 138.46
  A 1.31 1.31 0.0 0 1 168.15 137.17
  Q 210.71 137.46 256.00 137.07
  Q 261.46 137.02 270.77 137.45
  Q 289.38 138.32 303.75 150.04
  C 325.04 167.40 332.40 195.27 324.59 221.38
  C 316.45 248.62 296.75 262.14 268.95 266.47
  C 266.83 266.80 265.95 267.99 267.07 269.92
  Q 285.73 302.18 287.00 304.44
  A 0.42 0.42 0.0 0 1 286.63 305.07
  Z
  M 211.20 217.94
  A 2.40 2.40 0.0 0 0 207.04 217.91
  L 194.61 239.02
  A 2.40 2.40 0.0 0 0 196.66 242.63
  L 221.16 242.85
  A 2.40 2.40 0.0 0 0 223.27 239.27
  L 211.20 217.94
  Z"
/>
<path fill="#fafafa" d="
  M 211.36 351.43
  Q 210.15 349.51 209.77 349.06
  A 1.09 1.09 0.0 0 0 207.84 349.75
  L 207.84 361.69
  A 2.37 2.37 0.0 0 1 205.47 364.06
  L 203.09 364.07
  A 2.22 2.22 0.0 0 1 200.86 361.78
  Q 200.92 360.05 200.90 340.07
  C 200.89 334.12 207.33 333.02 209.95 338.27
  Q 211.84 342.06 215.99 348.65
  Q 217.19 350.57 217.57 351.03
  A 1.09 1.09 0.0 0 0 219.50 350.33
  L 219.50 338.39
  A 2.37 2.37 0.0 0 1 221.87 336.02
  L 224.25 336.01
  A 2.22 2.22 0.0 0 1 226.48 338.30
  Q 226.42 340.03 226.44 360.01
  C 226.45 365.96 220.01 367.06 217.39 361.81
  Q 215.50 358.02 211.36 351.43
  Z"
/>
<path fill="#fafafa" d="
  M 263.42 364.45
  L 262.97 364.50
  A 3.62 3.61 77.3 0 1 259.13 362.07
  Q 257.76 358.05 251.46 358.81
  Q 247.44 359.29 246.68 361.41
  A 3.89 3.88 -83.7 0 1 243.58 363.90
  L 241.82 364.14
  A 1.86 1.86 0.0 0 1 239.84 361.61
  Q 244.53 349.94 249.22 338.52
  Q 250.44 335.56 253.21 335.54
  C 255.59 335.51 256.65 337.41 257.46 339.55
  Q 261.61 350.50 265.58 360.89
  A 2.64 2.63 -13.8 0 1 263.42 364.45
  Z
  M 252.13 348.03
  L 250.15 352.27
  A 1.08 1.08 0.0 0 0 250.68 353.71
  L 251.07 353.89
  A 3.64 3.37 25.0 0 0 255.80 352.38
  L 255.84 352.29
  A 3.64 3.37 25.0 0 0 253.96 347.69
  L 253.57 347.51
  A 1.08 1.08 0.0 0 0 252.13 348.03
  Z"
/>
<path fill="#fafafa" d="
  M 182.64 359.54
  C 186.26 359.56 188.31 356.87 188.42 353.45
  Q 188.70 345.14 188.57 338.95
  A 3.18 3.18 0.0 0 1 191.75 335.70
  L 192.07 335.70
  A 3.11 3.11 0.0 0 1 195.18 338.83
  Q 195.15 344.07 194.80 354.58
  Q 194.54 362.61 186.54 363.85
  Q 185.82 363.97 182.62 363.95
  Q 179.42 363.93 178.69 363.81
  Q 170.71 362.47 170.54 354.44
  Q 170.32 343.92 170.35 338.68
  A 3.11 3.11 0.0 0 1 173.50 335.59
  L 173.82 335.59
  A 3.18 3.18 0.0 0 1 176.96 338.88
  Q 176.76 345.07 176.93 353.38
  C 177.00 356.80 179.03 359.52 182.64 359.54
  Z"
/>
<path fill="#fafafa" d="
  M 290.17 361.58
  L 290.17 362.25
  A 1.70 1.70 0.0 0 1 288.46 363.95
  Q 280.30 363.93 272.94 363.98
  Q 270.01 364.00 270.12 361.27
  Q 270.19 359.34 270.10 338.52
  A 2.73 2.72 -0.1 0 1 272.83 335.79
  L 273.63 335.79
  A 2.60 2.60 0.0 0 1 276.23 338.53
  Q 276.14 340.19 276.16 356.99
  Q 276.16 359.62 278.05 359.67
  Q 280.53 359.73 288.31 359.72
  A 1.86 1.86 0.0 0 1 290.17 361.58
  Z"
/>
<path fill="#fafafa" d="
  M 300.73 353.90
  A 1.35 1.33 -4.3 0 0 299.58 355.22
  L 299.58 361.56
  A 2.68 2.66 -86.8 0 1 296.62 364.22
  L 296.07 364.16
  A 3.40 3.40 0.0 0 1 292.92 360.77
  Q 292.87 343.92 292.85 338.77
  C 292.84 335.50 294.45 335.93 297.02 335.77
  Q 303.99 335.35 308.97 336.83
  C 314.53 338.49 315.36 346.72 312.19 350.74
  Q 310.61 352.74 307.44 353.61
  C 305.43 354.17 302.90 353.60 300.73 353.90
  Z
  M 307.54 345.47
  A 4.31 4.31 0.0 0 0 303.23 341.16
  A 4.31 4.31 0.0 0 0 298.92 345.47
  A 4.31 4.31 0.0 0 0 303.23 349.78
  A 4.31 4.31 0.0 0 0 307.54 345.47
  Z"
/>
<path fill="#fafafa" d="
  M 330.10 349.57
  Q 332.55 349.58 333.82 349.23
  A 2.46 2.45 -7.8 0 0 335.62 346.87
  L 335.62 338.35
  A 2.63 2.63 0.0 0 1 338.25 335.72
  L 338.88 335.72
  A 2.54 2.53 89.9 0 1 341.41 338.25
  L 341.46 361.16
  A 3.09 3.09 0.0 0 1 338.62 364.24
  L 338.38 364.26
  A 2.57 2.57 0.0 0 1 335.53 361.73
  L 335.45 355.66
  A 1.72 1.72 0.0 0 0 334.00 353.97
  Q 332.39 353.71 330.08 353.70
  Q 327.77 353.69 326.16 353.94
  A 1.72 1.72 0.0 0 0 324.69 355.62
  L 324.57 361.69
  A 2.57 2.57 0.0 0 1 321.70 364.20
  L 321.46 364.17
  A 3.09 3.09 0.0 0 1 318.64 361.07
  L 318.87 338.16
  A 2.54 2.53 -89.4 0 1 321.42 335.65
  L 322.05 335.66
  A 2.63 2.63 0.0 0 1 324.66 338.31
  L 324.59 346.83
  A 2.46 2.45 8.3 0 0 326.37 349.20
  Q 327.64 349.57 330.10 349.57
  Z"
/>
<path fill="#fafafa" d="
  M 358.50 335.72
  Q 359.74 335.72 360.57 335.97
  A 1.88 1.87 -12.4 0 1 361.42 336.51
  Q 362.16 337.32 363.13 339.87
  Q 368.77 354.72 371.26 361.38
  A 1.99 1.99 0.0 0 1 371.21 362.88
  Q 370.12 365.30 367.77 364.41
  A 1.85 1.85 0.0 0 1 366.94 363.76
  Q 363.61 359.09 358.49 359.09
  Q 353.36 359.09 350.03 363.76
  A 1.85 1.85 0.0 0 1 349.20 364.40
  Q 346.85 365.29 345.76 362.87
  A 1.99 1.99 0.0 0 1 345.71 361.37
  Q 348.21 354.71 353.87 339.87
  Q 354.84 337.32 355.58 336.51
  A 1.88 1.87 12.4 0 1 356.43 335.97
  Q 357.26 335.72 358.50 335.72
  Z
  M 358.3870 353.9898
  A 2.70 2.26 90.7 0 0 360.6798 351.3176
  A 2.70 2.26 90.7 0 0 358.4530 348.5902
  A 2.70 2.26 90.7 0 0 356.1602 351.2624
  A 2.70 2.26 90.7 0 0 358.3870 353.9898
  Z"
/>
<path fill="#fafafa" d="
  M 165.68 361.62
  A 1.59 1.58 -10.7 0 1 164.07 363.98
  L 162.46 363.74
  A 6.31 6.28 -13.2 0 1 158.18 361.10
  Q 156.66 358.93 155.68 355.67
  Q 155.19 354.05 153.73 353.87
  C 149.36 353.33 150.40 359.31 150.33 361.66
  A 2.26 2.26 0.0 0 1 148.07 363.84
  L 146.37 363.84
  A 2.50 2.50 0.0 0 1 143.87 361.41
  Q 143.76 357.25 143.85 340.54
  C 143.87 336.74 146.33 335.98 149.85 336.12
  Q 151.00 336.16 156.92 336.11
  C 163.50 336.06 166.78 344.21 163.70 349.29
  Q 162.63 351.05 161.98 352.01
  A 2.86 2.86 0.0 0 0 161.88 355.03
  L 165.68 361.62
  Z
  M 158.32 345.44
  A 4.32 4.32 0.0 0 0 154.00 341.12
  A 4.32 4.32 0.0 0 0 149.68 345.44
  A 4.32 4.32 0.0 0 0 154.00 349.76
  A 4.32 4.32 0.0 0 0 158.32 345.44
  Z"
/>
</svg>
